<?xml version="1.0" standalone="no"?>
<!DOCTYPE svg PUBLIC "-//W3C//DTD SVG 1.1//EN" "http://www.w3.org/Graphics/SVG/1.1/DTD/svg11.dtd" >
<!--
2013-9-30: Created.
-->
<svg>
<metadata>
Created by iconfont
</metadata>
<defs>

<font id="iconfont-portal" horiz-adv-x="1024" >
  <font-face
    font-family="iconfont-portal"
    font-weight="500"
    font-stretch="normal"
    units-per-em="1024"
    ascent="896"
    descent="-128"
  />
    <missing-glyph />
    
    <glyph glyph-name="user" unicode="&#60498;" d="M914.285769 93.110857q0-68.534857-41.691429-108.251429t-110.884571-39.716571l-499.419429 0q-69.12 0-110.884571 39.716571t-41.691429 108.251429q0 30.281143 1.974857 59.172571t7.972571 62.317714 15.140571 62.025143 24.576 55.734857 35.401143 46.299429 48.859429 30.573714 63.707429 11.410286q5.12 0 23.990857-12.288t42.569143-27.428571 61.732571-27.428571 76.288-12.288 76.288 12.288 61.732571 27.428571 42.569143 27.428571 23.990857 12.288q34.889143 0 63.707429-11.410286t48.859429-30.573714 35.401143-46.299429 24.576-55.734857 15.140571-62.025143 7.972571-62.317714 1.974857-59.172571zM731.428626 603.428571q0-90.843429-64.292571-155.136t-155.136-64.292571-155.136 64.292571-64.292571 155.136 64.292571 155.136 155.136 64.292571 155.136-64.292571 64.292571-155.136z"  horiz-adv-x="1024" />

    
    <glyph glyph-name="yitingzhi" unicode="&#59047;" d="M512 760.8c254.08 0 460.8-206.72 460.8-460.8s-206.72-460.8-460.8-460.8S51.2 45.92 51.2 300 257.92 760.8 512 760.8M512 812C229.248 812 0 582.752 0 300s229.248-512 512-512 512 229.248 512 512S794.752 812 512 812L512 812zM741.312 111.648c0-16-12.928-28.992-28.928-28.992L311.616 82.656c-16 0-28.928 12.992-28.928 28.992L282.688 512.352c0 16 12.928 28.864 28.928 28.864l400.768 0c16 0 28.928-12.864 28.928-28.864L741.312 111.648z"  horiz-adv-x="1024" />

    
    <glyph glyph-name="jia" unicode="&#58915;" d="M512 834C264.5 834 62 631.5 62 384s202.5-450 450-450 450 202.5 450 450S759.5 834 512 834zM512-21C287-21 107 159 107 384S287 789 512 789 917 609 917 384 737-21 512-21zM742.625 406.5L534.5 406.5 534.5 614.625c0 11.25-11.25 22.5-22.5 22.5S489.5 625.875 489.5 614.625l0-208.125L281.375 406.5C270.125 406.5 258.875 395.25 258.875 384c0-11.25 11.25-22.5 22.5-22.5l208.125 0 0-208.125c0-11.25 11.25-22.5 22.5-22.5s22.5 11.25 22.5 22.5L534.5 361.5l208.125 0c11.25 0 22.5 11.25 22.5 22.5C765.125 395.25 753.875 406.5 742.625 406.5z"  horiz-adv-x="1024" />

    
    <glyph glyph-name="zhongzhimima" unicode="&#58890;" d="M636.172598 448.069989c37.402156 0 67.701422-33.050836 67.701422-73.844462l0-172.261084c0-40.761631-30.299266-73.812467-67.701422-73.812467l-248.217216 0c-37.370161 0-67.701422 33.050836-67.701422 73.812467l0 172.261084c0 40.761631 30.299266 73.844462 67.701422 73.844462L448.009998 448.069989l0 0 127.980003 0 0 0L636.172598 448.069989zM511.520075 383.760037c-35.322481 0-63.990002-27.387721-63.990002-61.206436 0-22.588471 17.53326-39.865771 36.602281-50.488111l0-79.539572 54.807436 0 0 79.539572c19.06902 10.62234 36.602281 27.899641 36.602281 50.488111C575.510077 356.372317 546.842556 383.760037 511.520075 383.760037zM512 575.890017c-60.150601 0-63.830027-50.584096-63.990002-63.990002l0-63.798032-64.405937 0 0 57.622996c0 0 0.031995 134.379003 128.139978 134.379003 128.139978 0 128.139978-134.379003 128.139978-134.379003l0-57.622996L575.990002 448.101984l0 63.798032C575.862022 525.081956 572.150601 575.890017 512 575.890017zM512-128c-282.739822 0-511.920012 229.180191-511.920012 511.920012s229.180191 511.920012 511.920012 511.920012c91.121762 0 176.612404-23.964256 250.712826-65.717732l47.608561 65.877707L895.556069 671.93901l-223.453085 32.794876 52.759756 73.012592C661.512639 812.077113 589.107952 831.818028 512 831.818028c-247.385346 0-447.930011-200.544665-447.930011-447.930011s200.544665-447.930011 447.930011-447.930011 447.930011 200.544665 447.930011 447.930011c0 60.406561-12.126105 117.933573-33.786721 170.533354l59.158756 24.348196C1010.066177 518.682956 1023.920012 452.933229 1023.920012 383.888017 1023.920012 101.180191 794.739822-128 512-128z"  horiz-adv-x="1024" />

    
    <glyph glyph-name="xuanzhong" unicode="&#58931;" d="M512 884C235.858 884 12 660.142 12 384s223.858-500 500-500 500 223.858 500 500S788.142 884 512 884zM785.818 528.454 455.656 198.29c-1.098-1.582-1.766-3.366-3.172-4.776-6.568-6.564-15.22-9.592-23.822-9.376-8.598-0.214-17.254 2.814-23.816 9.378-1.406 1.408-2.068 3.19-3.162 4.77l-163.504 163.504c-12.714 12.708-12.714 33.32 0 46.032 12.71 12.71 33.322 12.71 46.034 0l144.452-144.452 311.12 311.118c12.71 12.714 33.318 12.714 46.032 0C798.53 561.776 798.53 541.166 785.818 528.454z"  horiz-adv-x="1024" />

    
    <glyph glyph-name="xiaoxizhongxin" unicode="&#58981;" d="M510.464-52.224000000000046c-38.4 0-63.488 33.792-90.112 69.12-13.312 16.384-20.48 24.576-24.576 28.672-91.648 19.456-170.496 65.024-228.352 132.096-59.904 69.632-91.648 156.16-91.648 249.856 0 106.496 46.08 205.824 129.536 279.552 82.432 72.704 191.488 112.64 308.224 112.64 125.952 0 245.248-47.616 327.168-131.072 70.656-71.68 109.056-164.352 108.032-261.632 0-189.44-128.512-342.016-320.512-381.44-3.584-4.096-11.264-12.288-24.576-29.184l-0.512-0.512c-34.816-40.96-57.344-68.096-92.672-68.096z m-96.256 162.304c14.848-1.536 26.624-12.288 57.856-51.712 0-0.512 0.512-0.512 0.512-1.024 7.68-10.752 28.16-37.888 37.376-42.496 7.68 4.096 25.088 25.088 40.96 43.52 30.72 37.888 41.472 49.664 57.856 51.712 162.816 31.232 272.384 158.72 272.384 317.44 1.024 79.36-30.72 155.136-88.576 214.016-70.144 70.656-172.032 111.616-280.064 111.616-204.8 0-371.2-145.92-371.2-325.632 0.512-158.208 110.08-285.696 272.896-317.44z m162.816-72.704z m36.352 6.144z m-203.264 0z m203.264 0z m-203.264 0z m0 0z m203.776 0c-0.512 0-0.512 0 0 0-0.512 0-0.512 0 0 0z m-204.288 0z m0 0z m204.288 0z m-204.288 0z m0 0zM292.352 426.496c0-22.528 18.432-40.96 40.96-40.96s40.96 18.432 40.96 40.96-18.432 40.96-40.96 40.96-40.96-18.432-40.96-40.96zM472.064 426.496c0-22.528 18.432-40.96 40.96-40.96s40.96 18.432 40.96 40.96-18.432 40.96-40.96 40.96-40.96-18.432-40.96-40.96zM651.776 426.496c0-22.528 18.432-40.96 40.96-40.96s40.96 18.432 40.96 40.96-18.432 40.96-40.96 40.96-40.96-18.432-40.96-40.96z"  horiz-adv-x="1024" />

    
    <glyph glyph-name="yuandianzhong" unicode="&#59224;" d="M480 416m-288 0a4.5 4.5 0 1 0 576 0 4.5 4.5 0 1 0-576 0Z"  horiz-adv-x="1024" />

    
    <glyph glyph-name="bukejian" unicode="&#58993;" d="M956 342l-96 114c36 36 66 78 90 126 6 12 0 30-12 42-12 6-30 0-42-12C824 462 674 372 512 372c-162 0-312 90-384 234C122 624 104 630 86 618 74 612 68 594 74 582c24-48 54-84 90-120L68 348C56 336 62 318 74 306 80 300 86 300 92 300c6 0 18 6 24 12l90 108c30-24 60-42 96-60l-48-138c-6-18 0-30 18-36 6 0 6 0 12 0 12 0 24 6 30 18l48 138C398 324 440 318 482 312l0-138C482 156 494 144 512 144c18 0 30 12 30 30L542 312c42 0 84 12 126 24l48-132c6-12 18-18 30-18 6 0 6 0 12 0 18 6 24 24 18 36l-48 138c36 18 66 36 96 60l96-114c6-6 12-12 24-12 6 0 12 0 18 6C962 312 968 330 956 342z"  horiz-adv-x="1024" />

    
    <glyph glyph-name="fork" unicode="&#58893;" d="M896-128h-768c-70.605 0-128 57.395-128 128v768c0 70.554 57.395 128 128 128h768c70.605 0 128-57.446 128-128v-768c0-70.605-57.395-128-128-128zM128 844.8c-42.342 0-76.8-34.458-76.8-76.8v-768c0-42.342 34.458-76.8 76.8-76.8h768c42.342 0 76.8 34.458 76.8 76.8v768c0 42.342-34.458 76.8-76.8 76.8h-768zM244.263 709.296l614.41-614.41-36.204-36.204-614.41 614.41 36.204 36.204zM822.433 709.296l36.204-36.204-614.41-614.41-36.204 36.204 614.41 614.41z"  horiz-adv-x="1024" />

    
    <glyph glyph-name="yinpinaudio48" unicode="&#59870;" d="M800 135.104 800 64c0 0 192 79.552 192 320s-192 320-192 320l0-71.104c0 0 128-54.272 128-248.896S800 135.104 800 135.104zM232 179.2 736-128 736 896 232 588.8 98.688 588.8C32 588.8 32 520.512 32 520.512l0-273.088c0 0 0-68.288 66.688-68.288L232 179.136z"  horiz-adv-x="1024" />

    
    <glyph glyph-name="folder" unicode="&#59049;" d="M62 489.908v-418.359c0-28.828 24.697-52.383 55.107-52.383h789.697c30.411 0 55.107 23.467 55.107 52.383v425.303h-899.912v-6.943zM906.893 670.348h-384.258v11.426c0 37.002-30.762 67.060-68.467 67.060h-323.701c-37.705 0-68.467-30.058-68.467-67.060v-127.705h900v63.896c0 28.916-24.697 52.383-55.107 52.383z"  horiz-adv-x="1024" />

    
    <glyph glyph-name="mima" unicode="&#58925;" d="M781.994667 442.368 781.994667 602.453333c0 146.773333-119.125333 265.898667-265.898667 265.898667-1.706667 0-3.072 0-5.12 0-1.365333 0-3.413333 0-4.778667 0-146.773333 0-265.898667-119.125333-265.898667-265.898667l0-160.085333L146.090667 442.368 146.090667-107.52l732.16 0L878.250667 442.368 781.994667 442.368 781.994667 442.368zM595.626667-6.826667l-165.888 0 40.618667 177.834667c-24.234667 14.336-40.618667 40.96-40.618667 71.338667 0 45.738667 37.205333 82.944 82.944 82.944 45.738667 0 82.944-37.205333 82.944-82.944 0-30.378667-16.384-57.002667-40.96-71.68L595.626667-6.826667 595.626667-6.826667zM648.874667 442.368l-275.456 0L373.418667 602.453333c0 73.386667 59.733333 132.778667 132.778667 132.778667 2.048 0 6.485333 0 6.485333 0s2.389333 0 3.413333 0c73.386667 0 132.778667-59.733333 132.778667-132.778667L648.874667 442.368 648.874667 442.368zM648.874667 442.368"  horiz-adv-x="1024" />

    
    <glyph glyph-name="message" unicode="&#58901;" d="M-742.9916448 664.09813333M-742.9916448 664.09813333M512.0227552-79.78097813c-53.8396448 0-96.4835552 43.66791147-96.4835552 96.50631146l190.6688 0c0-57.04817813-41.73368853-96.50631147-94.2307552-96.50631146L512.0227552-79.78097813zM932.0220448 475.02222187c-12.4700448 0-22.61902187 9.51182187-22.7555552 21.98186666-1.75217813 175.35431147-124.26808853 269.03893333-125.5196448 269.9491552-10.0124448 7.53208853-12.0832 21.64053333-4.59662187 31.69848854 7.5548448 10.0124448 21.7088 12.0604448 31.78951147 4.59662186 5.77991147-4.2780448 141.83537813-107.1104 143.81511147-305.7891552C954.91413333 484.9436448 944.83342187 475.02222187 932.2496 475.02222187 932.18133333 475.02222187 932.09031147 475.02222187 932.0220448 475.02222187zM91.9779552 475.02222187c-0.06826667 0-0.15928853 0-0.2275552 0-12.58382187 0-22.66453333 9.87591147-22.528 22.43697813 2.00248853 198.656 138.0352 301.71591147 143.81511147 306.01671147 10.10346667 7.48657813 24.3484448 5.23377813 31.83502186-4.82417814 7.48657813-10.08071147 5.39306667-24.3712-4.64213333-31.88053333l0 0c-1.2515552-0.91022187-123.74471147-94.36728853-125.5196448-269.7216C114.59697813 484.5568 104.4252448 475.02222187 91.9779552 475.02222187zM511.7952 802.26986667c12.9251552 0 23.41546667-10.55857813 23.41546667-23.552l0-11.94666667c0-22.1184 15.88337813-41.02826667 37.6604448-44.8284448 111.32017813-19.4787552 192.1251552-129.95697813 192.1251552-262.69013333l0-246.41991147c0-12.8796448 5.46133333-25.1676448 15.01866666-33.792 31.60746667-28.51271147 63.57902187-62.19093333 75.20711147-78.77973333-2.00248853-0.70542187-4.64213333-1.27431147-7.73688853-1.27431147L511.7952 98.98666666999998 174.12551147 98.98666666999998c-2.70791147 0-5.05173333 0.45511147-6.84942187 1.0467552 11.6736 16.52053333 44.0547552 50.26702187 76.07182187 78.848 9.67111147 8.6243552 15.22346667 21.00337813 15.22346666 33.95128853L258.57137813 459.25262187c0 136.03271147 78.8707552 244.18986667 191.78382187 263.05422186 21.9363552 3.6636448 38.02453333 22.64177813 38.02453333 44.89671147L488.37973333 778.71786667C488.37973333 791.68853333 498.8928 802.26986667 511.7952 802.26986667M511.7952 847.78097813c-38.0700448 0-68.94933333-30.9248-68.94933333-69.06311146L442.84586667 767.2035552c-137.87591147-23.02862187-229.7856-154.51022187-229.7856-307.95093333l0-246.41991147c0 0-85.4016-76.1628448-92.86542187-105.2672-6.89493333-33.47342187 23.30168853-54.0899552 53.93066667-54.0899552 2.77617813 0 207.34862187 0 337.66968853 0 137.87591147 0 332.93653333 0 335.71271147 0 30.65173333 0 61.78133333 20.61653333 54.9091552 54.0899552-7.48657813 29.1043552-91.88693333 105.2672-91.88693334 105.2672L810.53013333 459.25262187c0 152.68977813-93.0019552 283.57973333-229.7856 307.51857813L580.74453333 778.71786667C580.74453333 816.85617813 549.8652448 847.78097813 511.7952 847.78097813L511.7952 847.78097813z"  horiz-adv-x="1024" />

    
    <glyph glyph-name="fanhuishangcengji" unicode="&#59264;" d="M702.141 6.823l-191.673-3.22-383.358 0v63.885l511.134 0.157c10.523-1.521 21.007-0.157 31.952-0.157 123.495 0 223.619 100.117 223.619 223.619s-100.123 223.612-223.613 223.618h-223.625v-191.916l-383.352 223.868 383.353 223.862v-191.916l255.565-3.22c143.544-16.087 255.557-136.446 255.557-284.296 0-147.837-112.014-268.201-255.558-284.283z"  horiz-adv-x="1024" />

    
    <glyph glyph-name="icon_user" unicode="&#58921;" d="M512.512-66.048c-246.784 0-447.488 200.704-447.488 447.488S265.728 828.928 512.512 828.928 960 628.2239999999999 960 381.44000000000005 759.296-66.048 512.512-66.048zM354.304 35.327999999999975c48.128-22.016 101.888-34.304 158.208-34.304s110.08 12.288 158.208 34.304v1.536c0 1.024-0.512 3.072-0.512 5.12 0 36.864-12.8 72.192-36.352 100.864l-0.512 0.512c-11.776 13.824-9.728 34.816 4.096 46.592s34.816 10.24 46.592-3.584l0.512-0.512c26.624-32.256 44.032-71.68 49.664-112.64 95.744 69.12 158.72 181.76 158.72 309.248 0 209.92-171.008 380.928-380.928 380.928S131.072 592.384 131.072 382.46400000000006c0-126.976 62.464-239.616 158.72-309.248C305.152 181.76 399.36 266.24 512.512 266.24c18.432 0 33.28-14.848 33.28-33.28s-14.848-33.28-33.28-33.28c-87.04 0-157.696-70.656-157.696-157.696 0-2.048 0-3.584-0.512-5.12v-1.536z m0 3.584z m0 0.512z m0 0z m0 0z m0 0z m316.416 0z m-158.208 271.36c-81.92 0-148.48 66.56-148.48 148.48s66.56 148.48 148.48 148.48 148.48-66.56 148.48-148.48-66.56-148.48-148.48-148.48z m0 230.4c-45.056 0-81.92-36.864-81.92-81.92s36.864-81.92 81.92-81.92 81.92 36.864 81.92 81.92c0 45.568-36.864 81.92-81.92 81.92z"  horiz-adv-x="1024" />

    
    <glyph glyph-name="shanchu" unicode="&#58922;" d="M929.04106667 708.78549333h-46.32689778v-741.22695111c0-51.17269333-41.48110222-92.65379555-92.65379556-92.65379555H234.13987555c-51.17269333 0-92.65379555 41.48110222-92.65379555 92.65379555V708.78549333h-46.32689778c-25.58634667 0-46.32689778 20.74055111-46.32689777 46.32689778s20.74055111 46.32689778 46.32689777 46.32689778h277.96024889c0 51.17269333 41.48110222 92.65379555 92.65379556 92.65379556h92.65379555c51.17269333 0 92.65379555-41.48110222 92.65379556-92.65379556H929.04106667c25.58634667 0 46.32689778-20.74055111 46.32689778-46.32689778s-20.74055111-46.32689778-46.32689778-46.32689778z m-138.98069334 0H234.13987555v-741.22695111h555.92049778V708.78549333z m-370.61290666-92.65379555c25.58634667 0 46.32689778-20.74055111 46.32689778-46.32689778v-463.26670222c0-25.58634667-20.74055111-46.32689778-46.32689778-46.32689778s-46.32689778 20.74055111-46.32689778 46.32689778V569.8048c0 25.58634667 20.74055111 46.32689778 46.32689778 46.32689778z m185.30645333 0c25.58634667 0 46.32689778-20.74055111 46.32689778-46.32689778v-463.26670222c0-25.58634667-20.74055111-46.32689778-46.32689778-46.32689778s-46.32689778 20.74055111-46.32689778 46.32689778V569.8048c0 25.58634667 20.74055111 46.32689778 46.32689778 46.32689778z"  horiz-adv-x="1024" />

    
    <glyph glyph-name="chaxun" unicode="&#58880;" d="M999.68 15.786666999999966l-249.173333 249.173333c41.813333 64 66.133333 140.8 66.133333 222.72C816.64 712.96 634.026667 896 408.32 896 183.04 896 0 712.96 0 487.68c0-225.706667 183.04-408.32 408.32-408.32 82.773333 0 160 24.746667 224.426667 67.413333l248.746666-248.746666c32.426667-32.426667 85.333333-32.426667 117.76 0 32.853333 32.426667 32.853333 85.333333 0.426667 117.76zM137.813333 487.68c0 150.613333 122.026667 272.64 272.64 272.64s272.64-122.026667 272.64-272.64-122.026667-272.64-272.64-272.64S137.813333 337.06666700000005 137.813333 487.68z"  horiz-adv-x="1024" />

    
    <glyph glyph-name="jiaoseguanli" unicode="&#58894;" d="M365.056-28.159999999999968V220.15999999999997h25.6c23.552 0 42.496 18.944 42.496 42.496V438.784c0 23.552-18.944 42.496-42.496 42.496H255.488c-23.552 0-42.496-18.944-42.496-42.496v-176.128c0-23.552 18.944-42.496 42.496-42.496h25.6v-248.32H226.304v198.656c-39.936 12.8-67.072 50.176-67.072 92.16V438.784c0 53.248 43.008 96.768 96.768 96.768h134.656c53.248 0 97.28-43.52 97.28-96.768v-176.128c0-41.984-27.136-79.36-67.072-92.16v-198.656H365.056z m442.88 67.072c-31.232 0-56.32 25.088-56.32 56.32s25.088 56.32 56.32 56.32 56.32-25.088 56.32-56.32-25.088-56.32-56.32-56.32z m-204.8 29.184c-3.072-0.512-7.68 3.584-10.24 7.68-3.072 5.632-2.56 16.384-2.56 20.48v260.096h-39.424c-7.168 0.512-13.824 3.584-18.944 9.216-5.12 5.12-7.168 12.288-7.168 19.456 0.512 14.336 11.776 25.6 25.6 26.112h39.424V671.232c0 5.632 1.536 10.752 5.12 15.36 5.632 8.192 13.824 12.8 23.04 12.8h69.632c8.192 0 14.336-3.584 19.456-8.704s7.68-12.288 7.68-19.456c-0.512-14.336-11.776-26.112-26.112-26.624H645.12v-233.984h43.52c14.848 0 27.136-12.288 27.136-27.136s-12.288-27.136-27.136-27.136H645.12V122.88h43.008c14.848 0 27.136-12.288 27.136-27.136s-12.288-27.136-27.136-27.136l-84.992-0.512z m204.8 259.072c-31.232 0-56.32 25.088-56.32 56.32s25.088 56.32 56.32 56.32 56.32-25.088 56.32-56.32c0-30.72-25.088-56.32-56.32-56.32zM322.56 573.952c-61.44 0-111.616 50.176-111.616 112.128S261.12 798.208 323.072 798.208 435.2 748.032 435.2 686.08c-1.024-62.464-50.688-112.128-112.64-112.128z m0 168.96c-31.232 0-57.344-26.112-57.344-57.344S291.328 628.2239999999999 322.56 628.2239999999999s57.344 26.112 57.344 57.344-25.6 57.344-57.344 57.344z m485.376-127.488c-30.208-1.024-55.296 23.552-56.32 54.784s23.04 57.344 53.248 58.368h3.584c30.208 1.024 55.296-23.552 56.32-54.784s-23.04-57.344-53.248-58.368h-3.584z"  horiz-adv-x="1024" />

    
    <glyph glyph-name="xitongpeizhi" unicode="&#58917;" d="M911.872 449.536c-10.752 10.752-24.576 16.384-39.936 16.384h-36.352c-5.12 0-12.8 5.12-14.848 12.8L798.72 531.456c-2.56 4.608-1.024 13.824 2.56 17.408l25.6 25.6c10.752 10.752 16.384 24.576 16.384 39.936 0 14.848-5.632 29.184-16.384 39.424l-42.496 42.496c-10.24 10.24-24.576 15.872-39.936 15.872s-29.696-5.632-39.424-15.872l-25.6-25.6c-1.536-1.536-6.656-3.584-11.776-3.584-2.048 0-4.096 0.512-5.632 1.024-1.024 0.512-1.536 1.024-2.56 1.024L607.232 691.2c-5.12 1.536-10.24 9.216-10.24 14.336v36.352c0 30.72-25.088 56.32-56.32 56.32H480.768c-31.232 0-56.32-25.088-56.32-56.32v-36.352c0-5.12-5.12-12.8-12.8-14.848l-50.688-20.48c-1.024-0.512-1.536-0.512-2.56-1.024-3.584-2.048-14.336-0.512-17.408 2.56l-25.6 25.6c-10.24 10.24-24.576 15.872-39.936 15.872s-29.696-5.632-39.424-15.872l-42.496-42.496c-10.752-10.752-16.384-24.576-16.384-39.936 0-14.848 5.632-29.184 16.384-39.424l25.6-25.6c3.584-3.584 5.12-12.8 2.56-16.896-0.512-1.024-1.024-1.536-1.024-2.56L199.68 476.672c-1.536-5.12-9.216-10.24-14.336-10.24h-36.352c-31.232 0-56.32-25.088-56.32-56.32v-60.416c0-30.72 25.088-56.32 56.32-56.32h35.84c5.12 0 12.8-5.12 14.848-12.8l22.016-52.736c2.56-4.608 1.024-13.824-2.56-17.408l-25.6-25.6c-22.016-22.016-21.504-57.344 0-79.36l42.496-42.496c10.24-10.24 24.576-15.872 39.936-15.872s29.696 5.632 39.424 15.872l25.6 25.6c1.536 1.536 6.144 3.584 11.264 3.584 2.048 0 4.096-0.512 5.632-1.024 1.024-0.512 1.536-1.024 2.56-1.024l52.736-21.504c5.12-1.536 10.752-9.216 10.752-14.336v-35.84c0-30.72 25.088-56.32 56.32-56.32h60.416c30.72 0 56.32 25.088 56.32 56.32v35.84c0 5.12 5.632 12.8 12.8 14.848l50.688 20.48c1.024 0.512 1.536 0.512 2.56 1.024s3.072 1.024 5.632 1.024c5.12 0 9.728-2.048 11.776-3.584l25.6-25.6c10.24-10.24 24.576-15.872 39.936-15.872s29.696 5.632 39.424 15.872l42.496 42.496c10.752 10.752 16.384 24.576 16.384 39.936 0 14.848-5.632 29.184-16.384 39.936l-25.6 25.6c-3.584 3.584-5.12 12.8-1.536 19.456l21.504 52.736c1.536 5.12 9.216 10.752 14.336 10.752h36.352c30.72 0 56.32 25.088 56.32 56.32V409.6c-1.024 15.36-6.656 29.184-17.408 39.936z m-139.264-148.992l-19.456-48.128c-12.8-24.576-7.68-58.88 11.776-78.336l25.6-25.6c0.512-0.512 1.024-1.536 1.024-3.072 0-1.024-0.512-2.048-1.024-3.072l-42.496-42.496c-2.048-2.048-4.096-2.048-5.632 0l-25.6 25.6c-11.776 11.776-29.696 18.432-48.64 18.432-10.752 0-20.48-2.048-28.672-6.144l-47.616-19.456c-26.112-8.192-47.104-36.352-47.104-64v-35.84c0-2.048-2.048-4.096-4.096-4.096H480.768c-2.048 0-4.096 2.048-4.096 4.096v35.84c0 27.648-19.968 55.296-45.056 62.976l-49.152 19.968c-8.192 4.096-18.432 6.656-28.672 6.656-18.944 0-36.864-7.168-48.64-18.432l-25.6-25.6c-2.048-2.048-3.584-2.048-5.632 0l-42.496 42.496c-1.536 1.536-1.536 4.096 0 5.632l25.6 25.6c19.456 18.944 25.088 53.76 12.8 76.288l-19.968 48.128c-8.192 26.112-36.352 47.104-64 47.104h-36.352c-2.048 0-4.096 2.048-4.096 4.096V410.112c0 2.048 2.048 4.096 4.096 4.096h36.352c27.136 0 55.808 20.48 62.976 45.056l20.48 49.152c12.288 24.576 7.168 57.856-12.288 77.312l-25.6 25.6c-1.024 1.024-1.024 2.048-1.024 3.072 0 0.512 0 1.536 1.024 3.072l42.496 42.496c2.048 2.048 3.584 2.048 5.632 0l25.6-25.6c11.776-11.776 29.696-18.432 48.128-18.432 10.752 0 20.48 2.048 28.672 6.144l47.616 19.456c26.624 8.192 47.104 36.352 47.104 64v36.352c0 2.048 2.048 4.096 4.096 4.096h60.416c2.048 0 4.096-2.048 4.096-4.096v-36.352c0-27.136 20.48-55.808 45.056-62.976l49.152-19.968c8.192-4.096 18.432-6.656 28.672-6.656 18.944 0 36.864 7.168 48.64 18.432l25.6 25.6c2.048 2.048 3.584 2.048 5.632 0l42.496-42.496c1.024-1.024 1.024-2.048 1.024-3.072 0-1.024-0.512-2.048-1.024-3.072l-25.6-25.6c-18.944-19.456-24.576-53.76-12.8-76.288l19.968-48.128c8.192-26.112 36.352-47.104 64-47.104h36.352c1.024 0 2.048-0.512 2.56-1.024 1.024-1.024 1.024-2.048 1.024-3.072v-60.416c0-2.048-2.048-4.096-4.096-4.096h-36.352c-26.624 0-55.296-20.48-62.976-45.056z m-261.632 256c-97.28 0-176.64-79.36-176.64-176.64s79.36-176.64 176.64-176.64 176.64 79.36 176.64 176.64c-0.512 97.28-79.36 176.64-176.64 176.64z m0-301.056c-68.608 0-124.416 55.808-124.416 124.416s55.808 124.416 124.416 124.416 124.416-55.808 124.416-124.416-55.808-124.416-124.416-124.416z"  horiz-adv-x="1024" />

    
    <glyph glyph-name="yonghuguanli" unicode="&#58919;" d="M163.328 48.639999999999986c-12.8 0-23.552 9.728-25.6 22.016 0 0.512 0 1.024-0.512 1.536-5.12 19.456-7.68 40.448-7.68 63.488C129.536 278.01599999999996 245.76 394.24 388.096 394.24s258.56-116.224 258.56-258.56c0-20.992-2.56-42.496-7.68-64 0-1.024-0.512-1.536-1.024-2.56-0.512-1.536-1.024-3.584-2.048-5.632-6.144-12.8-21.504-17.92-34.304-11.264-11.776 6.144-16.896 19.456-12.8 31.744 0 0.512 0.512 1.024 0.512 2.048 4.096 16.896 6.144 33.792 6.144 50.176 0 114.176-93.184 207.36-207.36 207.36s-207.36-93.184-207.36-207.36c0-18.944 2.048-35.84 6.144-51.712 0.512-1.024 0.512-2.048 0.512-3.072 0.512-1.536 1.024-4.096 1.024-6.656 0.512-14.848-10.752-26.112-25.088-26.112z m474.112 17.92z m-449.024 10.752z m199.68 342.528c-82.944 0-150.016 67.072-150.016 149.504 0 82.944 67.072 150.016 150.016 150.016 82.432 0 149.504-67.072 149.504-149.504C537.6 486.912 470.528 419.84 388.096 419.84z m0 248.32c-54.272 0-98.816-44.544-98.816-98.816 0-54.272 44.544-98.304 98.816-98.304C442.368 471.04 486.4 515.5840000000001 486.4 569.856c0 54.272-44.032 98.304-98.304 98.304zM865.792 82.94399999999996c-4.096 0-7.68 1.024-11.264 2.56-11.776 6.144-16.896 19.456-12.8 31.744 0 0.512 0.512 1.024 0.512 2.048 4.096 16.896 6.144 33.792 6.144 50.176 0 114.176-98.304 210.432-215.04 210.432-14.336 0-25.6 11.264-25.6 25.6s11.264 25.6 25.6 25.6c144.384 0 266.24-119.808 266.24-261.632 0-20.992-2.56-42.496-7.68-64 0-1.024-0.512-1.536-1.024-2.56-0.512-1.536-1.024-3.584-2.048-5.632-4.608-9.216-13.824-14.336-23.04-14.336z m24.064 17.408z m-23.04 11.264zM637.952 379.904h-5.12c-14.336 0-25.6 11.264-25.6 25.6s11.264 25.6 25.6 25.6h5.12c54.272 0 98.304 44.544 98.304 98.816 0 54.272-44.544 98.304-98.816 98.304h-2.56c-14.336 0-25.6 11.264-25.6 25.6s11.264 25.6 25.6 25.6h2.56c82.944 0 150.016-67.072 150.016-149.504 0-82.944-67.072-150.016-149.504-150.016z"  horiz-adv-x="1025" />

    
    <glyph glyph-name="zuzhijigou" unicode="&#58929;" d="M120.32 81.91999999999996c0-45.056 36.864-81.92 81.92-81.92s81.92 36.864 81.92 81.92-36.864 81.92-81.92 81.92-81.92-36.864-81.92-81.92zM431.104 81.91999999999996c0-45.056 36.864-81.92 81.92-81.92s81.92 36.864 81.92 81.92-36.864 81.92-81.92 81.92-81.92-36.864-81.92-81.92zM431.104 715.264c0-45.056 36.864-81.92 81.92-81.92s81.92 36.864 81.92 81.92-36.864 81.92-81.92 81.92-81.92-36.352-81.92-81.92zM741.888 81.91999999999996c0-45.056 36.864-81.92 81.92-81.92s81.92 36.864 81.92 81.92-36.864 81.92-81.92 81.92-81.92-36.864-81.92-81.92zM823.808 224.76800000000003c-16.896 0-30.72 13.824-30.72 30.72V410.112l-560.64-2.048v-152.576c0-16.896-13.824-30.72-30.72-30.72s-30.72 13.824-30.72 30.72V438.784c0 16.896 13.824 30.72 30.72 30.72l622.08 2.048c8.192 0 15.872-3.072 21.504-9.216 5.632-5.632 9.216-13.824 9.216-21.504v-185.344c0-16.896-13.824-30.72-30.72-30.72zM512.512 224.76800000000003c-16.896 0-30.72 13.824-30.72 30.72l-1.024 434.176c0 16.896 13.824 30.72 30.72 30.72s30.72-13.824 30.72-30.72l1.024-434.176c0-16.896-13.824-30.72-30.72-30.72z"  horiz-adv-x="1024" />

    
    <glyph glyph-name="zuhuguanli" unicode="&#58930;" d="M482.304 323.072c-139.776 0-253.44 113.664-253.44 253.44C228.864 715.7760000000001 342.528 829.44 482.304 829.44s253.44-113.664 253.44-253.44c0-33.792-7.168-68.096-20.992-100.864-6.656-15.872-24.576-23.04-40.448-16.384-15.872 6.656-23.04 24.576-16.384 40.448 10.752 25.6 15.872 51.2 15.872 77.312 0 105.984-86.016 192-192 192S290.304 681.984 290.304 576.512c0-105.984 86.016-192 192-192 16.896 0 30.72-13.824 30.72-30.72s-13.824-30.72-30.72-30.72zM158.72-40.960000000000036c-16.896 0-30.72 13.824-30.72 30.72 0 93.184 39.936 192 109.568 269.824 70.656 79.36 159.744 124.928 244.736 124.928 16.896 0 30.72-13.824 30.72-30.72s-13.824-30.72-30.72-30.72c-67.584 0-140.288-37.888-199.168-103.936C223.744 151.55200000000002 189.44 68.096 189.44-10.240000000000009c0-16.896-13.824-30.72-30.72-30.72zM634.368 383.48800000000006c0.512 0 1.024-0.512 1.536-1.536l14.848-21.504c11.776-17.408 31.744-28.16 52.736-28.16 19.968 0 38.912 9.216 51.2 25.6l1.024 1.024 1.024 1.024 15.36 22.016c0.512 0.512 0.512 1.024 1.024 1.024H774.656c0.512 0 0.512-0.512 1.024-0.512 0 0 0.512-1.024 0-2.56l-0.512-1.536v-1.536l-2.56-24.064c-3.072-20.48 3.584-40.448 18.432-55.296 11.776-11.776 28.672-18.944 45.568-18.944 3.072 0 6.144 0 9.216 0.512h2.048l26.624 4.608h2.048l0.512-0.512c0.512-1.024 0.512-1.536-1.024-3.072l-21.504-14.848c-17.408-11.776-28.16-31.744-28.16-52.736 0-19.968 9.216-38.912 25.6-51.2l1.024-1.024 1.024-1.024 22.016-15.36c2.048-1.536 1.536-2.048 1.024-3.072l-0.512-1.024h-2.048l-25.6 4.608c-4.096 0.512-8.192 1.024-12.288 1.024-16.896 0-33.28-6.656-45.568-18.944-13.312-13.312-19.968-32.256-18.432-50.688v-1.536l0.512-4.096 4.608-26.112v-2.048l-0.512-0.512c-2.56-1.024-3.584-1.024-3.584-1.024l-1.024 1.024-14.848 22.016c-11.776 17.408-31.744 28.16-52.736 28.16-19.968 0-38.912-9.216-51.2-25.6l-1.024-1.024-1.024-1.024-15.36-22.016c-0.512-0.512-0.512-1.024-0.512-1.024s-1.024 0-2.048 0.512c-2.048 1.024-1.536 1.536-1.536 2.048l4.608 26.112c3.584 20.992-3.072 41.984-18.432 57.344-11.776 11.776-28.672 18.944-45.568 18.944-3.072 0-6.144 0-9.216-0.512h-2.048l-26.624-4.608h-1.024c-1.024 0-1.024 0-2.048 1.536-0.512 1.024-0.512 1.536 1.024 2.56l21.504 14.848c17.408 11.776 28.16 31.744 28.16 52.736 0 19.968-9.216 38.912-25.6 51.2l-1.024 1.024-1.024 1.024-22.016 15.36c-0.512 0.512-0.512 0.512-1.024 0.512 0 0 0 0.512 0.512 1.536l0.512 1.024H534.528l25.6-4.608c4.096-0.512 8.192-1.024 11.776-1.024 16.896 0 33.28 6.656 45.568 18.944 13.312 13.312 19.968 32.256 18.432 50.688v1.536l-0.512 4.096-4.608 26.112c-0.512 1.536 0 2.048 1.024 2.56 2.048 1.024 2.56 1.024 2.56 1.024M772.608 434.688c-16.896 0-32.768-8.192-43.008-23.04l-15.36-22.016c-3.072-3.584-6.656-5.632-10.752-5.632s-8.192 2.048-10.752 5.632l-15.36 22.016c-10.752 14.848-26.624 23.04-43.52 23.04-7.168 0-14.336-1.536-21.504-4.608-23.552-10.24-35.84-33.792-31.744-58.88l4.608-26.112v-0.512c1.024-5.632-1.536-9.728-3.072-11.264-1.024-1.024-4.608-4.096-9.216-4.096h-2.56l-26.112 4.608c-3.584 0.512-6.656 1.024-9.728 1.024-21.504 0-40.448-12.288-48.64-33.28-9.728-23.552-2.56-49.152 18.432-64l22.016-15.36c3.584-3.072 5.632-6.656 5.632-10.752s-2.048-8.192-5.632-10.752l-22.016-15.36c-20.992-14.848-28.672-40.96-18.432-64.512 8.704-20.48 27.648-32.256 49.152-32.256 3.072 0 6.656 0.512 10.24 1.024l26.624 4.608h2.048c4.608 0 7.68-2.56 9.216-3.584 1.536-1.536 5.12-5.632 4.096-12.288l-4.608-26.112c-4.608-25.088 8.704-49.152 32.768-58.88 7.168-3.072 14.336-4.096 20.992-4.096 16.896 0 32.256 8.192 43.008 23.04l15.36 22.016c3.072 3.584 6.656 5.632 10.752 5.632s8.192-2.048 10.752-5.632l15.36-22.016c10.752-14.848 26.112-23.04 43.52-23.04 7.168 0 14.336 1.536 22.528 4.608 23.552 9.728 35.84 33.792 31.744 58.88l-4.608 26.112v0.512c-1.024 5.632 1.536 9.728 3.072 11.264 1.024 1.024 4.608 4.096 9.216 4.096h2.56l26.112-4.608c3.584-0.512 7.168-1.024 10.752-1.024 20.992 0 39.424 12.288 48.128 32.256 10.24 24.064 2.56 50.176-18.944 65.024l-22.016 15.36c-3.584 3.072-5.632 6.656-5.632 10.752s2.048 8.192 5.632 10.752l22.016 15.36c20.992 14.848 28.672 40.96 18.432 64.512-8.192 20.48-27.648 32.256-49.152 32.256-3.584 0-6.656-0.512-10.24-1.024l-26.624-4.608h-2.048c-4.608 0-7.68 2.56-9.216 3.584-1.536 1.536-5.12 5.632-4.096 12.288l3.072 25.6c4.608 25.6-8.192 49.152-31.744 58.88-7.168 3.072-14.336 4.608-21.504 4.608zM706.048 250.88c20.992 0 38.4-17.408 38.4-38.4 0-10.24-4.096-19.968-11.264-27.136-7.168-7.168-16.896-11.264-27.136-11.264-20.992 0-38.4 17.408-38.4 38.4s16.896 38.4 38.4 38.4m0 51.2c-49.664 0-89.6-40.448-89.6-89.6s39.936-89.6 89.6-89.6 89.6 40.448 89.6 89.6-40.448 89.6-89.6 89.6z"  horiz-adv-x="1024" />

    
    <glyph glyph-name="yuechi" unicode="&#58928;" d="M512 896a512 512 0 1 1 512-512A512 512 0 0 1 512 896z m0-955.73333333a443.73333333 443.73333333 0 1 0 443.73333333 443.73333333 443.73333333 443.73333333 0 0 0-443.73333333-443.73333333zM512 725.33333333a204.8 204.8 0 0 1-34.13333333-406.528V8.533333330000005h68.26666666v68.26666667h102.4v68.26666667h-102.4v34.13333333h102.4v68.26666667h-102.4v71.33866666A204.8 204.8 0 0 1 512 725.33333333z m0-341.33333333a136.53333333 136.53333333 0 1 0 136.53333333 136.53333333 136.53333333 136.53333333 0 0 0-136.53333333-136.53333333z"  horiz-adv-x="1024" />

    
    <glyph glyph-name="icon-" unicode="&#59099;" d="M512-128C230.4-128 0 102.39999999999998 0 384S230.4 896 512 896s512-230.4 512-512-230.4-512-512-512z m0 960C265.6 832 64 630.4 64 384s201.6-448 448-448 448 201.6 448 448S758.4 832 512 832zM448 185.60000000000002c-9.6 0-22.4 3.2-32 9.6-19.2 12.8-32 32-32 54.4v268.8c0 22.4 12.8 44.8 32 54.4 19.2 12.8 44.8 9.6 64 0l224-134.4c19.2-12.8 32-32 32-54.4s-12.8-41.6-32-54.4l-224-134.4c-9.6-6.4-22.4-9.6-32-9.6z m0 332.8v-268.8l224 134.4-224 134.4z"  horiz-adv-x="1024" />

    
    <glyph glyph-name="bianji1" unicode="&#58960;" d="M293.07280537 257.49172148v-92.46994804H385.54275342l268.27511924 269.29575879L560.83760528 526.27716006l-267.76479991-268.78543858z m375.39124541 336.45384405a24.08709463 24.08709463 0 0 1-34.34452295 0l-43.93853437-43.42821504 92.46994805-91.95962783 41.9482872 45.97981435a23.47471055 23.47471055 0 0 1 0 33.83420273l-56.13517793 55.57382579z m0 0M512.30619161 827.8761627C265.26037607 827.8761627 65.16398252 628.80040869 65.16398252 383.28555205c0-245.56588769 201.06600117-444.59060977 447.14220908-444.59060976 247.04581552 0 447.14220908 199.07575401 447.14220908 444.59060976 1.02063955 245.51485576-200.04536162 444.59060977-447.14220908 444.59061065z m-1e-8-827.53458838c-212.19097324 0-384.4749375 171.77364492-384.4749375 382.43365839 0 211.17033369 172.79428447 382.94397862 384.47493751 382.94397774s385.49557705-171.77364492 385.49557792-382.94397774c0-210.66001347-173.30460381-382.4336584-385.49557793-382.43365839z m0 0"  horiz-adv-x="1024" />

    
    <glyph glyph-name="zhuyaogongneng-copy" unicode="&#60499;" d="M175.94687314 769.90001467L417.08599344 769.90001467C449.92190948 769.90001467 476.5406791 743.731584 476.5406791 710.6286361L476.5406791 465.30420576C476.5406791 432.56952735 450.06545334 406.03282718 417.08599344 406.03282718L175.94687314 406.03282718C143.11095711 406.03282718 116.49218751 432.20125783 116.49218751 465.30420576L116.49218751 710.6286361C116.49218751 743.3633145 142.96741245 769.90001467 175.94687314 769.90001467ZM175.94687314 354.61681077000003L417.08599344 354.61681077000003C449.92190948 354.61681077000003 476.5406791 328.44838086000004 476.5406791 295.34543295000003L476.5406791 50.021001859999956C476.5406791 17.28632269000002 450.06545334-9.25037672999997 417.08599344-9.25037672999997L175.94687314-9.25037672999997C143.11095711-9.25037672999997 116.49218751 16.918053920000034 116.49218751 50.021001859999956L116.49218751 295.34543295000003C116.49218751 328.08011137000005 142.96741245 354.61681077000003 175.94687314 354.61681077000003ZM514.85897998 600.98141503L684.7827573 770.90519237C696.44613591 782.56857095 715.67111022 782.25367105 727.24356993 770.68120903L898.96956975 598.95520999C910.75665194 587.16812855 910.64456486 567.9454075900001 899.19355387 556.49439578L729.26977655 386.57061847C717.60639715 374.90723986 698.38142286 375.22213899999997 686.80896315 386.79460181L515.08296331 558.52060087C503.29588112 570.30768228 503.40796742 589.5304032700001 514.85897998 600.98141503ZM586.45670715 354.61681077000003L827.59582667 354.61681077000003C860.43174349 354.61681077000003 887.05051078 328.44838086000004 887.05051078 295.34543295000003L887.05051078 50.021001859999956C887.05051078 17.28632269000002 860.57528502-9.25037672999997 827.59582667-9.25037672999997L586.45670715-9.25037672999997C553.62079035-9.25037672999997 527.00201842 16.918053920000034 527.00201842 50.021001859999956L527.00201842 295.34543295000003C527.00201842 328.08011137000005 553.47724418 354.61681077000003 586.45670715 354.61681077000003Z"  horiz-adv-x="1025" />

    
    <glyph glyph-name="xiaoxi" unicode="&#58988;" d="M563.800064 842.73152c155.654144-28.801024 258.707456-152.213504 258.965504-310.46656 0.12288-74.518528-0.063488-149.037056 0.14336-223.555584 0.022528-8.402944-0.546816-17.915904 2.967552-25.030656 39.65952-80.308224 80.064512-160.247808 120.2688-240.285696v-5.15072c-86.274048 0.086016-190.994432 0.417792-277.264384-0.1536-23.7568-178.368512-279.074816-179.734528-309.67808 0-86.272 0.571392-186.896384 0.239616-273.174528 0.1536v5.15072C124.008448 118.80448 162.4064 194.011136 199.555072 269.832192c6.090752 12.43136 9.244672 27.52512 9.404416 41.439232 0.892928 77.078528-0.045056 154.177536 0.557056 231.262208 1.05472 135.213056 94.302208 256.045056 223.737856 293.0176 59.803648 18.982912 127.371264 7.766016 130.545664 7.180288zM178.798592 101.896192h673.255424c-4.081664 9.586688-6.981632 17.408-10.653696 24.848384-21.209088 42.979328-44.128256 85.200896-63.268864 129.0752-9.222144 21.137408-15.446016 45.217792-16.08704 68.161536-2.060288 73.711616-0.022528 147.52768-1.153024 221.280256-2.00704 131.033088-112.402432 239.112192-243.472384 239.630336-132.513792 0.524288-244.109312-107.528192-246.13888-239.542272a6977.3312 6977.3312 0 0 1 0.014336-218.720256c0.423936-26.564608-5.138432-49.999872-17.410048-73.467904-25.64096-49.033216-49.334272-99.084288-75.085824-151.26528z m246.571008-64.24576c8.808448-59.148288 53.608448-81.68448 95.592448-79.89248 41.216 1.28 80.470016 31.668224 82.608128 79.89248H425.3696z"  horiz-adv-x="1024" />

    
    <glyph glyph-name="gongdanguanli1" unicode="&#59002;" d="M946.798592 136.910848c16.441344 5.480448 27.40224 5.480448 38.367232 10.960896V180.75648s-28.237824 3.56352-38.367232 5.480448c0 10.960896-5.4784 16.441344-5.4784 27.40224l27.400192 27.406336c-5.4784 10.960896-16.441344 27.40224-16.441344 27.40224s-21.921792-5.480448-38.365184-10.960896c-5.480448 5.480448-10.960896 10.960896-21.921792 16.441344 5.4784 16.441344 8.615936 26.103808 10.960896 38.367232l-27.40224 16.441344s-16.441344-21.921792-27.406336-32.884736c0 0-21.921792 5.484544-27.400192 5.484544-5.480448 16.441344-10.960896 38.363136-10.960896 38.363136h-38.367232s-4.53632-24.70912-5.480448-38.363136c-5.480448 0-16.441344-5.484544-21.921792-5.484544l-27.406336 27.406336c-5.480448-5.480448-27.40224-16.441344-27.40224-16.441344s5.480448-21.925888 10.960896-38.367232l-16.441344-16.441344-38.367232 10.960896s-10.960896-27.40224-16.441344-32.886784c0 0 16.457728-13.760512 27.40224-21.921792-4.288512-15.13472-2.351104-15.366144-5.4784-27.40224-8.720384-2.3552-25.688064-6.16448-38.363136-8.910848v-34.936832c13.539328-3.67616 35.188736-5.367808 38.363136-5.480448 2.727936-7.7824 6.311936-15.2064 10.964992-21.921792l-27.406336-27.404288c5.480448-10.960896 16.441344-27.40224 16.441344-27.40224s21.925888 5.4784 38.367232 10.960896c5.480448-5.480448 10.960896-10.960896 21.921792-16.441344-2.400256-7.530496-10.958848-38.367232-10.958848-38.367232s21.921792-10.960896 27.404288-16.441344l27.40224 27.40224 27.40224-5.480448c3.033088-11.470848 10.96704-38.361088 10.96704-38.361088h32.88064c1.548288 6.242304 2.961408 25.35424 5.480448 38.361088l27.406336 5.480448 27.40224-27.40224c10.960896 5.480448 27.40224 16.441344 27.40224 16.441344s-5.480448 21.921792-10.960896 38.367232c5.480448 5.480448 10.960896 10.960896 16.441344 21.921792 16.44544-5.480448 27.406336-5.480448 38.367232-10.960896 5.480448 10.960896 10.960896 21.921792 16.441344 27.40224l-27.40224 27.406336v21.919744z m-131.534848-87.689216c-82.208768-6.555648-126.793728 63.076352-121.204736 115.120128 9.089024 69.13024 58.054656 91.871232 97.1264 93.392896 60.782592 6.117376 105.496576-38.598656 111.765504-93.421568 6.168576-54.884352-27.400192-104.13056-87.687168-115.091456z m0 0M606.99648 27.295744h-394.60864a49.123328 49.123328 0 0 0-49.328128 49.328128V630.173696c0 32.882688 21.921792 54.802432 54.806528 54.802432h76.72832v-109.611008h389.128192v109.611008h82.208768c32.884736 0 54.808576-21.921792 54.808576-54.802432v-246.632448c16.441344 0 38.367232-5.480448 54.806528-10.960896V630.173696c0 60.286976-49.328128 109.60896-109.615104 109.60896h-82.208768V794.59328H612.47488c-27.406336 32.886784-71.247872 54.808576-120.576 54.808576S398.72512 827.480064 371.32288 794.59328h-71.247872v-54.808576H217.86624c-60.286976 0-109.615104-49.321984-109.615104-109.60896V82.10432c0-60.289024 49.328128-109.615104 109.615104-109.615104h438.452224c-16.439296 16.443392-32.88064 32.884736-49.321984 54.806528zM360.36608 739.784704h49.32608c0 32.886784 38.363136 60.289024 82.208768 60.289024 43.84768 0 82.208768-27.40224 82.208768-60.289024h49.328128v-115.089408H360.36608V739.784704z m0 0M612.476928 334.215168H261.711872v-54.808576h350.767104v54.808576zM261.711872 476.71296h471.341056v-54.806528H261.711872V476.71296z m0-284.993536H557.6704v-54.808576H261.711872v54.808576z m0 0M798.8224 152.686592m-46.706688 0a46.706688 46.706688 0 1 1 93.413376 0 46.706688 46.706688 0 1 1-93.413376 0Z"  horiz-adv-x="1024" />

    
    <glyph glyph-name="daohangshensuo" unicode="&#59008;" d="M895.881216 445.954048H152.43264c-34.220032 0-61.954048-27.734016-61.954048-61.954048 0-34.220032 27.734016-61.954048 61.954048-61.954048h743.448576c34.220032 0 61.947904 27.734016 61.947904 61.954048 0 34.220032-27.727872 61.954048-61.947904 61.954048zM152.43264 569.862144h743.448576c34.220032 0 61.947904 27.734016 61.947904 61.954048 0 34.220032-27.727872 61.954048-61.947904 61.954048H152.43264c-34.220032 0-61.954048-27.734016-61.954048-61.954048 0-34.220032 27.734016-61.954048 61.954048-61.954048z m743.448576-371.724288H152.43264c-34.220032 0-61.954048-27.734016-61.954048-61.954048 0-34.220032 27.734016-61.954048 61.954048-61.954048h743.448576c34.220032 0 61.947904 27.734016 61.947904 61.954048 0 34.220032-27.727872 61.954048-61.947904 61.954048z"  horiz-adv-x="1024" />

    
    <glyph glyph-name="bianji2" unicode="&#59016;" d="M995.544405 327.099051a28.423851 28.423851 0 0 1-28.448426-28.444331v-312.881493c-0.038912-31.403655-25.485006-56.853846-56.890709-56.888662H113.774251c-31.403655 0.034816-56.84975 25.485006-56.89071 56.888662V782.212437c0.04096 31.405703 25.485006 56.84975 56.89071 56.89071h312.891733c15.710019 0 28.444331 12.740455 28.444331 28.448426 0 15.710019-12.736359 28.444331-28.444331 28.444331H113.774251C50.960796 895.936513 0.056319 845.02794 0.001024 782.212437v-796.43921c0.059391-62.809358 50.963868-113.713835 113.773227-113.773227h796.43921c62.809358 0.059391 113.713835 50.965916 113.773227 113.773227V298.66496a28.419755 28.419755 0 0 1-28.442283 28.434091z m0 0M406.526194 278.52517a28.425899 28.425899 0 0 1 40.218141 0L1015.653476 847.428167c11.106171 11.108219 11.106171 29.114019 0 40.224285-11.108219 11.106171-29.114019 11.106171-40.224285 0L406.526194 318.774031a28.434091 28.434091 0 0 1 0-40.248861z m0 0"  horiz-adv-x="1024" />

    
    <glyph glyph-name="jiankonggaojing" unicode="&#59017;" d="M513.36063 639.115264c-158.574592 0-287.557632-130.961408-287.557632-292.02432v-325.971968h578.056192V347.824128c-3.221504 160.622592-133.541888 291.291136-290.49856 291.291136z m222.55616-550.375424h-442.18368V347.162624c0 123.676672 98.547712 224.331776 219.641856 224.331776 120.270848 0 220.063744-100.950016 222.543872-224.331776V88.73984zM989.36703 483.313664l-128.264192-22.669312c-17.125376-2.89792-28.54912-17.0496-25.616384-34.015232 2.787328-14.221312 17.051648-25.509888 31.332352-25.509888 0 0 2.844672 2.75456 2.844672 0l128.264192 22.577152c17.068032 2.932736 28.491776 17.053696 25.63072 34.107392-2.859008 16.990208-17.123328 28.428288-34.19136 25.509888zM162.843382 460.644352l-128.264192 22.669312C20.296438 486.2464 3.246838 474.871808 0.457462 457.801728c-2.932736-14.206976 8.505344-31.188992 25.63072-34.019328l128.264192-22.755328h5.70368c14.211072 0 28.403712 11.380736 28.403712 25.513984 2.92864 14.225408-8.491008 31.26272-25.616384 34.103296zM544.764662 727.324672V857.77408c0 17.242112-14.047232 31.232-31.361024 31.232-17.332224 0-31.381504-13.989888-31.381504-31.232v-130.449408c0.114688-17.260544 14.075904-31.225856 31.338496-31.346688 17.235968 0.196608 31.172608 14.104576 31.404032 31.346688zM282.53055 613.840896c8.579072 0 14.280704 2.842624 22.769664 8.527872 11.43808 11.380736 14.2848 28.434432 2.932736 42.56768l-85.58592 99.260416c-11.419648 11.3664-28.545024 14.221312-42.752 2.9184-14.282752-11.43808-14.282752-28.428288-5.722112-42.63936l85.600256-99.188736a25.829376 25.829376 0 0 1 22.755328-11.433984v-0.012288zM744.256246 613.840896a25.935872 25.935872 0 0 1 22.769664 11.374592l85.512192 99.260416c10.522624 12.576768 9.035776 31.260672-3.342336 42.008576-12.392448 10.77248-31.100928 9.75872-42.26048-2.287616l-85.508096-99.260416a28.489728 28.489728 0 0 1 2.932736-42.56768c5.320704-5.218304 12.43136-8.210432 19.894272-8.513536v-0.014336zM869.679862-64.559104c0-18.061312-15.747072-32.702464-35.172352-32.702464H194.351862c-19.42528 0-35.1744 14.641152-35.1744 32.702464v2.18112c0 18.061312 15.747072 32.702464 35.1744 32.702464h640.155648c19.42528 0 35.172352-14.641152 35.172352-32.702464v-2.18112z"  horiz-adv-x="1026" />

    
    <glyph glyph-name="zuzhijigou-zhu" unicode="&#59062;" d="M1024.002048-39.13728h-1024v82.968576h1024v-82.968576zM945.842176 604.5696v-564.744192H565.778432V604.5696h380.063744zM733.06112 152.233984h-109.070336v-72.267776h109.070336v72.267776z m0 125.7984h-109.070336v-72.267776h109.070336v72.267776z m0 125.7984h-109.070336v-72.269824h109.070336v72.269824z m0 125.78816h-109.070336v-72.267776h109.070336v72.267776z m160.59392-377.38496h-109.070336v-72.267776h109.070336v72.267776z m0 125.7984h-109.070336v-72.267776h109.070336v72.267776z m0 125.7984h-109.070336v-72.269824h109.070336v72.269824z m0 125.78816h-109.070336v-72.267776h109.070336v72.267776zM501.004288 805.298176v-765.478912H70.08256V805.298176h430.921728z m-66.906112-647.702528H136.998912v-72.271872h297.101312v72.271872z m0 144.525312H136.998912v-72.267776h297.101312V302.12096z m0 144.52736H136.998912v-72.267776h297.101312V446.64832z m0 144.5376H136.998912v-72.269824h297.101312v72.269824z m0 144.523264H136.998912v-72.267776h297.101312V735.709184z m0 0"  horiz-adv-x="1025" />

    
    <glyph glyph-name="fuwumulu" unicode="&#58982;" d="M407.04 447.488h268.8c14.336 0 25.6-11.264 25.6-25.6s-11.264-25.6-25.6-25.6h-268.8c-14.336 0-25.6 11.264-25.6 25.6s11.776 25.6 25.6 25.6z m0-96.256h269.312c14.336 0 25.6-11.264 25.6-25.6s-11.264-25.6-25.6-25.6H407.04c-14.336 0-25.6 11.264-25.6 25.6s11.264 25.6 25.6 25.6z m-0.512-96.256h269.824c14.336 0 25.6-11.264 25.6-25.6s-11.264-25.6-25.6-25.6H406.528c-14.336 0-25.6 11.264-25.6 25.6s11.264 25.6 25.6 25.6zM502.784 699.392c88.576 0 166.912-62.976 185.344-149.504l8.704-41.472 41.984-6.656c44.032-6.656 84.48-29.184 114.176-63.488 29.696-34.304 46.08-78.336 46.08-123.904 0-99.84-77.824-182.784-177.152-189.44h-1.536c-4.096 0-7.68-0.512-10.752-0.512-3.584 0-7.168 0-11.776 0.512H273.92c-4.096-0.512-7.168-0.512-9.728-0.512-76.8 0-139.264 62.464-139.264 139.264 0 75.264 58.88 136.192 133.632 139.264l70.656 2.56-12.8 70.656c-2.048 11.264-3.072 22.528-3.072 33.792 0 104.448 84.992 189.44 189.44 189.44m0 61.44c-138.752 0-250.88-112.64-250.88-250.88 0-15.36 1.536-30.208 4.096-44.544C148.48 460.8 62.976 372.736 62.976 264.70399999999995 62.976 153.60000000000002 153.088 64 263.68 64c4.608 0 9.216 0 13.824 0.512h415.744c5.12-0.512 10.24-0.512 15.872-0.512 5.12 0 10.752 0 15.872 0.512h0.512C856.576 72.70399999999995 960 181.76 960 314.88c0 125.44-92.16 229.376-212.48 248.32-23.552 112.64-124.416 197.632-244.736 197.632z"  horiz-adv-x="1024" />

    
    <glyph glyph-name="mimakejian" unicode="&#58913;" d="M512 127c-75.175 0-145.255 12.518-208.293 37.203-50.817 19.9-97.11 47.675-137.593 82.554-69.432 59.818-97.958 120.226-99.138 122.768A31.997 31.997 0 0 0 64 383v1c0 4.655 1.016 9.253 2.976 13.476 1.18 2.542 29.706 62.95 99.138 122.768 40.483 34.878 86.776 62.653 137.593 82.553C366.745 627.483 436.825 640 512 640c75.175 0 145.256-12.517 208.294-37.203 50.816-19.9 97.109-47.675 137.593-82.553 69.432-59.818 97.957-120.226 99.138-122.768A32.005 32.005 0 0 0 960.001 384v-1c0-4.655-1.016-9.254-2.976-13.476-1.181-2.542-29.706-62.949-99.138-122.768-40.483-34.879-86.776-62.653-137.593-82.554C657.256 139.518 587.175 127 512 127zM132.246 383.5c11.252-18.686 36.069-54.698 77.957-90.236C290.184 225.406 391.723 191 512 191s221.816 34.406 301.798 102.264c41.888 35.538 66.705 71.551 77.956 90.236-11.251 18.686-36.068 54.698-77.956 90.236C733.816 541.594 632.277 576 512 576s-221.816-34.406-301.797-102.264c-41.889-35.538-66.705-71.55-77.957-90.236zM512 223.969c-88.242 0-160.031 71.79-160.031 160.031 0 88.242 71.79 160.031 160.031 160.031S672.031 472.241 672.031 384 600.241 223.969 512 223.969z m0 256c-52.917 0-95.969-43.052-95.969-95.969s43.052-95.969 95.969-95.969 95.969 43.052 95.969 95.969-43.052 95.969-95.969 95.969z"  horiz-adv-x="1024" />

    
    <glyph glyph-name="yewuguanli" unicode="&#59006;" d="M886.784-22.015999999999963H141.312c-16.896 0-30.72 13.824-30.72 30.72v270.336c0 16.896 13.824 30.72 30.72 30.72h19.968V651.264c0 16.896 13.824 30.72 30.72 30.72h126.464V755.712c0 16.896 13.824 30.72 30.72 30.72h484.864c16.896 0 30.72-13.824 30.72-30.72v-445.952h22.016c16.896 0 30.72-13.824 30.72-30.72v-270.336c0-16.896-13.824-30.72-30.72-30.72z m-714.752 61.44h684.032v208.896h-165.376v-42.496c0-32.768-24.064-56.832-56.832-56.832H397.824c-32.768 0-56.832 24.064-56.832 56.832v42.496h-168.96v-208.896z m230.4 171.008h226.816v68.608c0 16.896 13.824 30.72 30.72 30.72h143.36V724.992H379.904v-66.048c0.512-2.56 1.024-5.12 1.024-7.68s-0.512-5.12-1.024-7.68v-334.848c12.8-3.584 22.528-15.36 22.528-29.696v-68.608z m-179.712 99.328h95.744V620.544H222.72v-310.784zM718.848 570.3679999999999h-261.12c-16.896 0-30.72 13.824-30.72 30.72s13.824 30.72 30.72 30.72h261.12c16.896 0 30.72-13.824 30.72-30.72s-13.824-30.72-30.72-30.72zM718.848 399.36h-261.12c-16.896 0-30.72 13.824-30.72 30.72s13.824 30.72 30.72 30.72h261.12c16.896 0 30.72-13.824 30.72-30.72s-13.824-30.72-30.72-30.72z"  horiz-adv-x="1024" />

    
    <glyph glyph-name="jiaoseguanli-new" unicode="&#58884;" d="M365.056-28.16V220.16h25.6c23.552 0 42.496 18.944 42.496 42.496V438.784c0 23.552-18.944 42.496-42.496 42.496H255.488c-23.552 0-42.496-18.944-42.496-42.496v-176.128c0-23.552 18.944-42.496 42.496-42.496h25.6v-248.32H226.304v198.656c-39.936 12.8-67.072 50.176-67.072 92.16V438.784c0 53.248 43.008 96.768 96.768 96.768h134.656c53.248 0 97.28-43.52 97.28-96.768v-176.128c0-41.984-27.136-79.36-67.072-92.16v-198.656H365.056z m442.88 67.072c-31.232 0-56.32 25.088-56.32 56.32s25.088 56.32 56.32 56.32 56.32-25.088 56.32-56.32-25.088-56.32-56.32-56.32z m-204.8 29.184c-3.072-0.512-7.68 3.584-10.24 7.68-3.072 5.632-2.56 16.384-2.56 20.48v260.096h-39.424c-7.168 0.512-13.824 3.584-18.944 9.216-5.12 5.12-7.168 12.288-7.168 19.456 0.512 14.336 11.776 25.6 25.6 26.112h39.424V671.232c0 5.632 1.536 10.752 5.12 15.36 5.632 8.192 13.824 12.8 23.04 12.8h69.632c8.192 0 14.336-3.584 19.456-8.704s7.68-12.288 7.68-19.456c-0.512-14.336-11.776-26.112-26.112-26.624H645.12v-233.984h43.52c14.848 0 27.136-12.288 27.136-27.136s-12.288-27.136-27.136-27.136H645.12V122.88h43.008c14.848 0 27.136-12.288 27.136-27.136s-12.288-27.136-27.136-27.136l-84.992-0.512z m204.8 259.072c-31.232 0-56.32 25.088-56.32 56.32s25.088 56.32 56.32 56.32 56.32-25.088 56.32-56.32c0-30.72-25.088-56.32-56.32-56.32zM322.56 573.952c-61.44 0-111.616 50.176-111.616 112.128S261.12 798.208 323.072 798.208 435.2 748.032 435.2 686.08c-1.024-62.464-50.688-112.128-112.64-112.128z m0 168.96c-31.232 0-57.344-26.112-57.344-57.344S291.328 628.224 322.56 628.224s57.344 26.112 57.344 57.344-25.6 57.344-57.344 57.344z m485.376-127.488c-30.208-1.024-55.296 23.552-56.32 54.784s23.04 57.344 53.248 58.368h3.584c30.208 1.024 55.296-23.552 56.32-54.784s-23.04-57.344-53.248-58.368h-3.584z"  horiz-adv-x="1024" />

    
    <glyph glyph-name="xitongshezhi-new" unicode="&#58885;" d="M911.872 449.536c-10.752 10.752-24.576 16.384-39.936 16.384h-36.352c-5.12 0-12.8 5.12-14.848 12.8L798.72 531.456c-2.56 4.608-1.024 13.824 2.56 17.408l25.6 25.6c10.752 10.752 16.384 24.576 16.384 39.936 0 14.848-5.632 29.184-16.384 39.424l-42.496 42.496c-10.24 10.24-24.576 15.872-39.936 15.872s-29.696-5.632-39.424-15.872l-25.6-25.6c-1.536-1.536-6.656-3.584-11.776-3.584-2.048 0-4.096 0.512-5.632 1.024-1.024 0.512-1.536 1.024-2.56 1.024L607.232 691.2c-5.12 1.536-10.24 9.216-10.24 14.336v36.352c0 30.72-25.088 56.32-56.32 56.32H480.768c-31.232 0-56.32-25.088-56.32-56.32v-36.352c0-5.12-5.12-12.8-12.8-14.848l-50.688-20.48c-1.024-0.512-1.536-0.512-2.56-1.024-3.584-2.048-14.336-0.512-17.408 2.56l-25.6 25.6c-10.24 10.24-24.576 15.872-39.936 15.872s-29.696-5.632-39.424-15.872l-42.496-42.496c-10.752-10.752-16.384-24.576-16.384-39.936 0-14.848 5.632-29.184 16.384-39.424l25.6-25.6c3.584-3.584 5.12-12.8 2.56-16.896-0.512-1.024-1.024-1.536-1.024-2.56L199.68 476.672c-1.536-5.12-9.216-10.24-14.336-10.24h-36.352c-31.232 0-56.32-25.088-56.32-56.32v-60.416c0-30.72 25.088-56.32 56.32-56.32h35.84c5.12 0 12.8-5.12 14.848-12.8l22.016-52.736c2.56-4.608 1.024-13.824-2.56-17.408l-25.6-25.6c-22.016-22.016-21.504-57.344 0-79.36l42.496-42.496c10.24-10.24 24.576-15.872 39.936-15.872s29.696 5.632 39.424 15.872l25.6 25.6c1.536 1.536 6.144 3.584 11.264 3.584 2.048 0 4.096-0.512 5.632-1.024 1.024-0.512 1.536-1.024 2.56-1.024l52.736-21.504c5.12-1.536 10.752-9.216 10.752-14.336v-35.84c0-30.72 25.088-56.32 56.32-56.32h60.416c30.72 0 56.32 25.088 56.32 56.32v35.84c0 5.12 5.632 12.8 12.8 14.848l50.688 20.48c1.024 0.512 1.536 0.512 2.56 1.024s3.072 1.024 5.632 1.024c5.12 0 9.728-2.048 11.776-3.584l25.6-25.6c10.24-10.24 24.576-15.872 39.936-15.872s29.696 5.632 39.424 15.872l42.496 42.496c10.752 10.752 16.384 24.576 16.384 39.936 0 14.848-5.632 29.184-16.384 39.936l-25.6 25.6c-3.584 3.584-5.12 12.8-1.536 19.456l21.504 52.736c1.536 5.12 9.216 10.752 14.336 10.752h36.352c30.72 0 56.32 25.088 56.32 56.32V409.6c-1.024 15.36-6.656 29.184-17.408 39.936z m-139.264-148.992l-19.456-48.128c-12.8-24.576-7.68-58.88 11.776-78.336l25.6-25.6c0.512-0.512 1.024-1.536 1.024-3.072 0-1.024-0.512-2.048-1.024-3.072l-42.496-42.496c-2.048-2.048-4.096-2.048-5.632 0l-25.6 25.6c-11.776 11.776-29.696 18.432-48.64 18.432-10.752 0-20.48-2.048-28.672-6.144l-47.616-19.456c-26.112-8.192-47.104-36.352-47.104-64v-35.84c0-2.048-2.048-4.096-4.096-4.096H480.768c-2.048 0-4.096 2.048-4.096 4.096v35.84c0 27.648-19.968 55.296-45.056 62.976l-49.152 19.968c-8.192 4.096-18.432 6.656-28.672 6.656-18.944 0-36.864-7.168-48.64-18.432l-25.6-25.6c-2.048-2.048-3.584-2.048-5.632 0l-42.496 42.496c-1.536 1.536-1.536 4.096 0 5.632l25.6 25.6c19.456 18.944 25.088 53.76 12.8 76.288l-19.968 48.128c-8.192 26.112-36.352 47.104-64 47.104h-36.352c-2.048 0-4.096 2.048-4.096 4.096V410.112c0 2.048 2.048 4.096 4.096 4.096h36.352c27.136 0 55.808 20.48 62.976 45.056l20.48 49.152c12.288 24.576 7.168 57.856-12.288 77.312l-25.6 25.6c-1.024 1.024-1.024 2.048-1.024 3.072 0 0.512 0 1.536 1.024 3.072l42.496 42.496c2.048 2.048 3.584 2.048 5.632 0l25.6-25.6c11.776-11.776 29.696-18.432 48.128-18.432 10.752 0 20.48 2.048 28.672 6.144l47.616 19.456c26.624 8.192 47.104 36.352 47.104 64v36.352c0 2.048 2.048 4.096 4.096 4.096h60.416c2.048 0 4.096-2.048 4.096-4.096v-36.352c0-27.136 20.48-55.808 45.056-62.976l49.152-19.968c8.192-4.096 18.432-6.656 28.672-6.656 18.944 0 36.864 7.168 48.64 18.432l25.6 25.6c2.048 2.048 3.584 2.048 5.632 0l42.496-42.496c1.024-1.024 1.024-2.048 1.024-3.072 0-1.024-0.512-2.048-1.024-3.072l-25.6-25.6c-18.944-19.456-24.576-53.76-12.8-76.288l19.968-48.128c8.192-26.112 36.352-47.104 64-47.104h36.352c1.024 0 2.048-0.512 2.56-1.024 1.024-1.024 1.024-2.048 1.024-3.072v-60.416c0-2.048-2.048-4.096-4.096-4.096h-36.352c-26.624 0-55.296-20.48-62.976-45.056z m-261.632 256c-97.28 0-176.64-79.36-176.64-176.64s79.36-176.64 176.64-176.64 176.64 79.36 176.64 176.64c-0.512 97.28-79.36 176.64-176.64 176.64z m0-301.056c-68.608 0-124.416 55.808-124.416 124.416s55.808 124.416 124.416 124.416 124.416-55.808 124.416-124.416-55.808-124.416-124.416-124.416z"  horiz-adv-x="1024" />

    
    <glyph glyph-name="zuzhijigou-new" unicode="&#58886;" d="M120.32 81.92c0-45.056 36.864-81.92 81.92-81.92s81.92 36.864 81.92 81.92-36.864 81.92-81.92 81.92-81.92-36.864-81.92-81.92zM431.104 81.92c0-45.056 36.864-81.92 81.92-81.92s81.92 36.864 81.92 81.92-36.864 81.92-81.92 81.92-81.92-36.864-81.92-81.92zM431.104 715.264c0-45.056 36.864-81.92 81.92-81.92s81.92 36.864 81.92 81.92-36.864 81.92-81.92 81.92-81.92-36.352-81.92-81.92zM741.888 81.92c0-45.056 36.864-81.92 81.92-81.92s81.92 36.864 81.92 81.92-36.864 81.92-81.92 81.92-81.92-36.864-81.92-81.92zM823.808 224.768c-16.896 0-30.72 13.824-30.72 30.72V410.112l-560.64-2.048v-152.576c0-16.896-13.824-30.72-30.72-30.72s-30.72 13.824-30.72 30.72V438.784c0 16.896 13.824 30.72 30.72 30.72l622.08 2.048c8.192 0 15.872-3.072 21.504-9.216 5.632-5.632 9.216-13.824 9.216-21.504v-185.344c0-16.896-13.824-30.72-30.72-30.72zM512.512 224.768c-16.896 0-30.72 13.824-30.72 30.72l-1.024 434.176c0 16.896 13.824 30.72 30.72 30.72s30.72-13.824 30.72-30.72l1.024-434.176c0-16.896-13.824-30.72-30.72-30.72z"  horiz-adv-x="1024" />

    
    <glyph glyph-name="yewuguanli-new" unicode="&#58887;" d="M886.784-22.016H141.312c-16.896 0-30.72 13.824-30.72 30.72v270.336c0 16.896 13.824 30.72 30.72 30.72h19.968V651.264c0 16.896 13.824 30.72 30.72 30.72h126.464V755.712c0 16.896 13.824 30.72 30.72 30.72h484.864c16.896 0 30.72-13.824 30.72-30.72v-445.952h22.016c16.896 0 30.72-13.824 30.72-30.72v-270.336c0-16.896-13.824-30.72-30.72-30.72z m-714.752 61.44h684.032v208.896h-165.376v-42.496c0-32.768-24.064-56.832-56.832-56.832H397.824c-32.768 0-56.832 24.064-56.832 56.832v42.496h-168.96v-208.896z m230.4 171.008h226.816v68.608c0 16.896 13.824 30.72 30.72 30.72h143.36V724.992H379.904v-66.048c0.512-2.56 1.024-5.12 1.024-7.68s-0.512-5.12-1.024-7.68v-334.848c12.8-3.584 22.528-15.36 22.528-29.696v-68.608z m-179.712 99.328h95.744V620.544H222.72v-310.784zM718.848 570.368h-261.12c-16.896 0-30.72 13.824-30.72 30.72s13.824 30.72 30.72 30.72h261.12c16.896 0 30.72-13.824 30.72-30.72s-13.824-30.72-30.72-30.72zM718.848 399.36h-261.12c-16.896 0-30.72 13.824-30.72 30.72s13.824 30.72 30.72 30.72h261.12c16.896 0 30.72-13.824 30.72-30.72s-13.824-30.72-30.72-30.72z"  horiz-adv-x="1024" />

    
    <glyph glyph-name="xiaoxizhongxin-new" unicode="&#58888;" d="M510.464-52.224c-38.4 0-63.488 33.792-90.112 69.12-13.312 16.384-20.48 24.576-24.576 28.672-91.648 19.456-170.496 65.024-228.352 132.096-59.904 69.632-91.648 156.16-91.648 249.856 0 106.496 46.08 205.824 129.536 279.552 82.432 72.704 191.488 112.64 308.224 112.64 125.952 0 245.248-47.616 327.168-131.072 70.656-71.68 109.056-164.352 108.032-261.632 0-189.44-128.512-342.016-320.512-381.44-3.584-4.096-11.264-12.288-24.576-29.184l-0.512-0.512c-34.816-40.96-57.344-68.096-92.672-68.096z m-96.256 162.304c14.848-1.536 26.624-12.288 57.856-51.712 0-0.512 0.512-0.512 0.512-1.024 7.68-10.752 28.16-37.888 37.376-42.496 7.68 4.096 25.088 25.088 40.96 43.52 30.72 37.888 41.472 49.664 57.856 51.712 162.816 31.232 272.384 158.72 272.384 317.44 1.024 79.36-30.72 155.136-88.576 214.016-70.144 70.656-172.032 111.616-280.064 111.616-204.8 0-371.2-145.92-371.2-325.632 0.512-158.208 110.08-285.696 272.896-317.44z m162.816-72.704z m36.352 6.144z m-203.264 0z m203.264 0z m-203.264 0z m0 0z m203.776 0c-0.512 0-0.512 0 0 0-0.512 0-0.512 0 0 0z m-204.288 0z m0 0z m204.288 0z m-204.288 0z m0 0zM292.352 426.496c0-22.528 18.432-40.96 40.96-40.96s40.96 18.432 40.96 40.96-18.432 40.96-40.96 40.96-40.96-18.432-40.96-40.96zM472.064 426.496c0-22.528 18.432-40.96 40.96-40.96s40.96 18.432 40.96 40.96-18.432 40.96-40.96 40.96-40.96-18.432-40.96-40.96zM651.776 426.496c0-22.528 18.432-40.96 40.96-40.96s40.96 18.432 40.96 40.96-18.432 40.96-40.96 40.96-40.96-18.432-40.96-40.96z"  horiz-adv-x="1024" />

    
    <glyph glyph-name="yonghuguanli-new" unicode="&#58889;" d="M163.328 48.64c-12.8 0-23.552 9.728-25.6 22.016 0 0.512 0 1.024-0.512 1.536-5.12 19.456-7.68 40.448-7.68 63.488C129.536 278.016 245.76 394.24 388.096 394.24s258.56-116.224 258.56-258.56c0-20.992-2.56-42.496-7.68-64 0-1.024-0.512-1.536-1.024-2.56-0.512-1.536-1.024-3.584-2.048-5.632-6.144-12.8-21.504-17.92-34.304-11.264-11.776 6.144-16.896 19.456-12.8 31.744 0 0.512 0.512 1.024 0.512 2.048 4.096 16.896 6.144 33.792 6.144 50.176 0 114.176-93.184 207.36-207.36 207.36s-207.36-93.184-207.36-207.36c0-18.944 2.048-35.84 6.144-51.712 0.512-1.024 0.512-2.048 0.512-3.072 0.512-1.536 1.024-4.096 1.024-6.656 0.512-14.848-10.752-26.112-25.088-26.112z m474.112 17.92z m-449.024 10.752z m199.68 342.528c-82.944 0-150.016 67.072-150.016 149.504 0 82.944 67.072 150.016 150.016 150.016 82.432 0 149.504-67.072 149.504-149.504C537.6 486.912 470.528 419.84 388.096 419.84z m0 248.32c-54.272 0-98.816-44.544-98.816-98.816 0-54.272 44.544-98.304 98.816-98.304C442.368 471.04 486.4 515.584 486.4 569.856c0 54.272-44.032 98.304-98.304 98.304zM865.792 82.944c-4.096 0-7.68 1.024-11.264 2.56-11.776 6.144-16.896 19.456-12.8 31.744 0 0.512 0.512 1.024 0.512 2.048 4.096 16.896 6.144 33.792 6.144 50.176 0 114.176-98.304 210.432-215.04 210.432-14.336 0-25.6 11.264-25.6 25.6s11.264 25.6 25.6 25.6c144.384 0 266.24-119.808 266.24-261.632 0-20.992-2.56-42.496-7.68-64 0-1.024-0.512-1.536-1.024-2.56-0.512-1.536-1.024-3.584-2.048-5.632-4.608-9.216-13.824-14.336-23.04-14.336z m24.064 17.408z m-23.04 11.264zM637.952 379.904h-5.12c-14.336 0-25.6 11.264-25.6 25.6s11.264 25.6 25.6 25.6h5.12c54.272 0 98.304 44.544 98.304 98.816 0 54.272-44.544 98.304-98.816 98.304h-2.56c-14.336 0-25.6 11.264-25.6 25.6s11.264 25.6 25.6 25.6h2.56c82.944 0 150.016-67.072 150.016-149.504 0-82.944-67.072-150.016-149.504-150.016z"  horiz-adv-x="1024" />

    
    <glyph glyph-name="zuhuguanli-new" unicode="&#58891;" d="M482.304 323.072c-139.776 0-253.44 113.664-253.44 253.44C228.864 715.776 342.528 829.44 482.304 829.44s253.44-113.664 253.44-253.44c0-33.792-7.168-68.096-20.992-100.864-6.656-15.872-24.576-23.04-40.448-16.384-15.872 6.656-23.04 24.576-16.384 40.448 10.752 25.6 15.872 51.2 15.872 77.312 0 105.984-86.016 192-192 192S290.304 681.984 290.304 576.512c0-105.984 86.016-192 192-192 16.896 0 30.72-13.824 30.72-30.72s-13.824-30.72-30.72-30.72zM158.72-40.96c-16.896 0-30.72 13.824-30.72 30.72 0 93.184 39.936 192 109.568 269.824 70.656 79.36 159.744 124.928 244.736 124.928 16.896 0 30.72-13.824 30.72-30.72s-13.824-30.72-30.72-30.72c-67.584 0-140.288-37.888-199.168-103.936C223.744 151.552 189.44 68.096 189.44-10.24c0-16.896-13.824-30.72-30.72-30.72zM634.368 383.488c0.512 0 1.024-0.512 1.536-1.536l14.848-21.504c11.776-17.408 31.744-28.16 52.736-28.16 19.968 0 38.912 9.216 51.2 25.6l1.024 1.024 1.024 1.024 15.36 22.016c0.512 0.512 0.512 1.024 1.024 1.024H774.656c0.512 0 0.512-0.512 1.024-0.512 0 0 0.512-1.024 0-2.56l-0.512-1.536v-1.536l-2.56-24.064c-3.072-20.48 3.584-40.448 18.432-55.296 11.776-11.776 28.672-18.944 45.568-18.944 3.072 0 6.144 0 9.216 0.512h2.048l26.624 4.608h2.048l0.512-0.512c0.512-1.024 0.512-1.536-1.024-3.072l-21.504-14.848c-17.408-11.776-28.16-31.744-28.16-52.736 0-19.968 9.216-38.912 25.6-51.2l1.024-1.024 1.024-1.024 22.016-15.36c2.048-1.536 1.536-2.048 1.024-3.072l-0.512-1.024h-2.048l-25.6 4.608c-4.096 0.512-8.192 1.024-12.288 1.024-16.896 0-33.28-6.656-45.568-18.944-13.312-13.312-19.968-32.256-18.432-50.688v-1.536l0.512-4.096 4.608-26.112v-2.048l-0.512-0.512c-2.56-1.024-3.584-1.024-3.584-1.024l-1.024 1.024-14.848 22.016c-11.776 17.408-31.744 28.16-52.736 28.16-19.968 0-38.912-9.216-51.2-25.6l-1.024-1.024-1.024-1.024-15.36-22.016c-0.512-0.512-0.512-1.024-0.512-1.024s-1.024 0-2.048 0.512c-2.048 1.024-1.536 1.536-1.536 2.048l4.608 26.112c3.584 20.992-3.072 41.984-18.432 57.344-11.776 11.776-28.672 18.944-45.568 18.944-3.072 0-6.144 0-9.216-0.512h-2.048l-26.624-4.608h-1.024c-1.024 0-1.024 0-2.048 1.536-0.512 1.024-0.512 1.536 1.024 2.56l21.504 14.848c17.408 11.776 28.16 31.744 28.16 52.736 0 19.968-9.216 38.912-25.6 51.2l-1.024 1.024-1.024 1.024-22.016 15.36c-0.512 0.512-0.512 0.512-1.024 0.512 0 0 0 0.512 0.512 1.536l0.512 1.024H534.528l25.6-4.608c4.096-0.512 8.192-1.024 11.776-1.024 16.896 0 33.28 6.656 45.568 18.944 13.312 13.312 19.968 32.256 18.432 50.688v1.536l-0.512 4.096-4.608 26.112c-0.512 1.536 0 2.048 1.024 2.56 2.048 1.024 2.56 1.024 2.56 1.024M772.608 434.688c-16.896 0-32.768-8.192-43.008-23.04l-15.36-22.016c-3.072-3.584-6.656-5.632-10.752-5.632s-8.192 2.048-10.752 5.632l-15.36 22.016c-10.752 14.848-26.624 23.04-43.52 23.04-7.168 0-14.336-1.536-21.504-4.608-23.552-10.24-35.84-33.792-31.744-58.88l4.608-26.112v-0.512c1.024-5.632-1.536-9.728-3.072-11.264-1.024-1.024-4.608-4.096-9.216-4.096h-2.56l-26.112 4.608c-3.584 0.512-6.656 1.024-9.728 1.024-21.504 0-40.448-12.288-48.64-33.28-9.728-23.552-2.56-49.152 18.432-64l22.016-15.36c3.584-3.072 5.632-6.656 5.632-10.752s-2.048-8.192-5.632-10.752l-22.016-15.36c-20.992-14.848-28.672-40.96-18.432-64.512 8.704-20.48 27.648-32.256 49.152-32.256 3.072 0 6.656 0.512 10.24 1.024l26.624 4.608h2.048c4.608 0 7.68-2.56 9.216-3.584 1.536-1.536 5.12-5.632 4.096-12.288l-4.608-26.112c-4.608-25.088 8.704-49.152 32.768-58.88 7.168-3.072 14.336-4.096 20.992-4.096 16.896 0 32.256 8.192 43.008 23.04l15.36 22.016c3.072 3.584 6.656 5.632 10.752 5.632s8.192-2.048 10.752-5.632l15.36-22.016c10.752-14.848 26.112-23.04 43.52-23.04 7.168 0 14.336 1.536 22.528 4.608 23.552 9.728 35.84 33.792 31.744 58.88l-4.608 26.112v0.512c-1.024 5.632 1.536 9.728 3.072 11.264 1.024 1.024 4.608 4.096 9.216 4.096h2.56l26.112-4.608c3.584-0.512 7.168-1.024 10.752-1.024 20.992 0 39.424 12.288 48.128 32.256 10.24 24.064 2.56 50.176-18.944 65.024l-22.016 15.36c-3.584 3.072-5.632 6.656-5.632 10.752s2.048 8.192 5.632 10.752l22.016 15.36c20.992 14.848 28.672 40.96 18.432 64.512-8.192 20.48-27.648 32.256-49.152 32.256-3.584 0-6.656-0.512-10.24-1.024l-26.624-4.608h-2.048c-4.608 0-7.68 2.56-9.216 3.584-1.536 1.536-5.12 5.632-4.096 12.288l3.072 25.6c4.608 25.6-8.192 49.152-31.744 58.88-7.168 3.072-14.336 4.608-21.504 4.608zM706.048 250.88c20.992 0 38.4-17.408 38.4-38.4 0-10.24-4.096-19.968-11.264-27.136-7.168-7.168-16.896-11.264-27.136-11.264-20.992 0-38.4 17.408-38.4 38.4s16.896 38.4 38.4 38.4m0 51.2c-49.664 0-89.6-40.448-89.6-89.6s39.936-89.6 89.6-89.6 89.6 40.448 89.6 89.6-40.448 89.6-89.6 89.6z"  horiz-adv-x="1024" />

    
    <glyph glyph-name="banquan" unicode="&#58896;" d="M511.488-56.32c-4.096 0-8.704 1.024-12.8 2.56l-177.152 80.896C201.728 81.92 127.488 184.32 127.488 294.912V670.72c0 8.704 3.584 16.896 10.24 23.04 6.656 5.632 15.36 8.704 24.064 7.68 15.872-2.048 32.768-3.072 48.64-3.072 90.112 0 174.592 28.16 238.08 79.36l43.52 34.816c11.264 9.216 27.136 9.216 38.4 0l43.52-34.816c63.488-51.2 147.968-79.36 238.08-79.36 16.384 0 32.768 1.024 48.64 3.072 8.704 1.024 17.408-1.536 24.064-7.68 6.656-5.632 10.24-14.336 10.24-23.04v-375.296c0-110.592-74.24-213.504-194.048-267.776l-177.152-80.896c-3.584-2.048-7.68-3.072-12.288-3.072z m-322.56 693.76v-342.016c0-86.528 60.416-167.424 158.208-211.968l164.352-74.752 164.352 74.752c97.28 44.544 158.208 125.952 158.208 211.968V637.44c-7.168-0.512-14.336-0.512-21.504-0.512-103.936 0-202.24 32.768-276.48 92.672l-24.064 19.456-24.064-19.456c-74.24-59.904-172.544-92.672-276.48-92.672-7.68 0-15.36 0.512-22.528 0.512z m322.56-471.04c-121.344 0-220.16 98.816-220.16 220.16s98.816 220.16 220.16 220.16 220.16-98.816 220.16-220.16-98.816-220.16-220.16-220.16z m0 378.88c-87.552 0-158.72-71.168-158.72-158.72s71.168-158.72 158.72-158.72 158.72 71.168 158.72 158.72-71.168 158.72-158.72 158.72z m25.6-268.288h-16.384c-60.416 0-109.056 49.152-109.056 109.056 0 60.416 49.152 109.056 109.056 109.056h16.384c16.896 0 30.72-13.824 30.72-30.72s-13.824-30.72-30.72-30.72h-16.384c-26.624 0-47.616-21.504-47.616-47.616 0-26.112 21.504-47.616 47.616-47.616h16.384c16.896 0 30.72-13.824 30.72-30.72s-13.824-30.72-30.72-30.72z"  horiz-adv-x="1024" />

    
    <glyph glyph-name="bangzhuzhongxin" unicode="&#58899;" d="M676.352 739.328c16.384 0 27.136-1.536 27.136-1.536h140.288c29.184 0 52.736-25.6 52.736-56.832v-564.224c0-31.232-23.552-56.832-52.736-56.832h-221.696s-17.408-66.56-110.08-66.56-109.056 66.56-109.056 66.56H183.296c-29.184 0-52.736 25.6-52.736 56.832V680.448C130.56 711.68 154.112 737.28 183.296 737.28h136.192s10.752 1.536 27.136 1.536c53.248 0 165.376-17.408 165.376-165.376 0 148.48 111.616 165.888 164.352 165.888m0 61.44c-59.392 0-120.832-17.408-164.352-60.416-39.936 38.912-98.304 60.416-164.864 60.416-13.824 0-25.088-1.024-31.232-1.536H183.296c-62.976 0-114.176-53.248-114.176-118.272v-564.224c0-65.536 51.2-118.272 114.176-118.272h182.784c3.584-4.608 7.168-9.216 11.776-13.824 22.528-24.064 64-52.736 134.144-52.736 69.632 0 111.616 28.16 134.656 52.224 4.608 4.608 8.704 9.728 12.288 14.336h185.344c62.976 0 114.176 53.248 114.176 118.272V680.448c0 65.536-51.2 118.272-114.176 118.272h-136.192c-7.168 1.024-17.92 2.048-31.744 2.048zM512.512 288.768c-16.896 0-30.72 13.824-30.72 30.72V704c0 16.896 13.824 30.72 30.72 30.72s30.72-13.824 30.72-30.72v-384.512c0-16.896-13.824-30.72-30.72-30.72z"  horiz-adv-x="1024" />

    
    <glyph glyph-name="zhishiku_fuzhi" unicode="&#58920;" d="M284.16 394.24v-209.92l227.84-107.52 225.28 107.52V394.24l-197.12-87.04c-10.24-5.12-17.92-5.12-28.16-5.12s-20.48 2.56-28.16 5.12l-199.68 87.04z m-61.44 28.16l-94.72 40.96c-23.04 10.24-38.4 33.28-38.4 58.88s15.36 48.64 38.4 58.88l355.84 168.96c17.92 10.24 40.96 10.24 61.44 0l355.84-168.96c23.04-10.24 38.4-33.28 38.4-58.88s-15.36-48.64-38.4-58.88L803.84 419.84v-235.52c0-25.6-15.36-48.64-35.84-58.88L527.36 10.240000000000009c-5.12-2.56-7.68-2.56-12.8-2.56s-10.24 0-12.8 2.56l-243.2 117.76c-23.04 10.24-35.84 33.28-35.84 58.88v235.52z m289.28 271.36h-2.56l-358.4-168.96H148.48l2.56-2.56 358.4-156.16h5.12L870.4 522.24c2.56 0 2.56 0 2.56 2.56h-2.56l-355.84 168.96h-2.56zM898.56 189.44000000000005c-23.04-10.24-46.08 7.68-46.08 30.72V401.92l76.8 30.72V230.39999999999998c-2.56-15.36-12.8-33.28-30.72-40.96z"  horiz-adv-x="1024" />

    


  </font>
</defs>
</svg>
